<?xml version="1.0" encoding="UTF-8"?>
<svg id="Layer_1" xmlns="http://www.w3.org/2000/svg" version="1.1" viewBox="0 0 200 80">
  <!-- Generator: Adobe Illustrator 29.5.1, SVG Export Plug-In . SVG Version: 2.1.0 Build 141)  -->
  <g id="_92107a8cff">
    <path d="M66.8,63.8l-3.9-5.1v3.7c0,.3,0,.5,0,.7,0,.2,0,.3.2.4,0,0,.2.1.3.2h0c0,0-1,0-1,0h0c.1-.1.2-.2.2-.3,0-.1,0-.4,0-.7v-3.7c0-.3,0-.6,0-.7,0-.1-.2-.2-.3-.2h0c0-.1.8-.1.8-.1l3.6,4.7v-3.3c0-.3,0-.6,0-.7,0-.2,0-.3-.2-.4,0,0-.2-.1-.3-.2h0c0-.1,1.1-.1,1.1-.1h0c-.1.2-.2.2-.3.4s0,.4,0,.7v4.8h-.1Z"/>
    <path d="M68,63.8h0c.1-.1.2-.2.2-.3,0-.1,0-.4,0-.7v-3.7c0-.3,0-.6,0-.7,0-.1-.1-.2-.2-.2h0c0-.1,3.8-.1,3.8-.1v1.1c0,0,0,0,0,0-.1-.4-.3-.6-.6-.8-.2-.2-.6-.2-1-.2h-1.2v2.5h1.1c.3,0,.6,0,.7,0s.3,0,.4-.2c0,0,.1-.2.2-.3h0v1.2h0c0-.1,0-.2-.2-.3,0,0-.2-.2-.4-.2-.2,0-.4,0-.7,0h-1.1v2.5c0,.2.1.4.4.4h1.1c.4,0,.7,0,1-.2.3-.1.5-.4.6-.8h0s0,1.1,0,1.1h-4.1Z"/>
    <path d="M75.4,59c-.1-.3-.2-.5-.3-.6,0-.1-.2-.2-.3-.2h0c0-.1,1.3-.1,1.3-.1h0c-.1.2-.2.2-.2.4,0,.1,0,.3.2.6l.5,1.1.4-1.1c0-.3.1-.5.1-.6,0-.1,0-.2-.2-.2h0c0-.1.9-.1.9-.1h0c-.1.2-.2.2-.3.4-.1.1-.2.3-.3.7l-.5,1.3,1.1,2.7,1.4-4c.2-.5.2-.8-.2-.9h0c0-.1.9-.1.9-.1h0c-.1.2-.2.2-.3.4,0,.1-.2.3-.3.7l-1.8,4.8h-.2l-1.2-2.8-1.2,2.8h-.2l-1.8-4.8c-.1-.3-.2-.5-.3-.7,0-.1-.2-.2-.3-.2h0c0-.1,1.3-.1,1.3-.1h0c-.1.2-.2.2-.2.4,0,.1,0,.3.2.7l1.5,4,.9-2.2-.8-1.8h0Z"/>
    <path d="M81.6,63.8h0c.1-.1.2-.2.2-.3,0-.1,0-.4,0-.7v-4.6h-.4c-.4,0-.7,0-.8.2-.2.1-.4.3-.5.6h0s0-.9,0-.9h4.3v.9s0,0,0,0c-.1-.3-.3-.5-.5-.6-.2-.1-.5-.2-.8-.2h-.4v4.6c0,.3,0,.6,0,.7,0,.1.2.2.3.2h0c0,0-1.3,0-1.3,0Z"/>
    <path d="M88,63.9c-.3,0-.7,0-1-.2-.3-.1-.7-.3-1-.6s-.5-.6-.7-.9-.2-.8-.2-1.3.1-1.1.4-1.5c.2-.4.6-.8,1-1,.4-.3,1-.4,1.5-.4s.7,0,1,.2c.4.1.7.3,1,.6.3.2.5.5.7.9s.2.8.2,1.3,0,1-.2,1.3c-.2.4-.4.7-.7.9-.3.2-.6.4-1,.5-.3.1-.7.2-1,.2ZM85.7,60.4c0,.4,0,.8.2,1.2.1.4.3.7.6,1.1.2.3.5.5.8.7.3.2.7.3,1,.3s.8,0,1.1-.3c.3-.2.5-.5.7-.8s.2-.7.2-1.1c0-.4,0-.8-.2-1.2-.1-.4-.3-.8-.5-1.1-.2-.3-.5-.6-.8-.8-.3-.2-.7-.3-1-.3s-.8,0-1.1.3c-.3.2-.5.5-.7.8-.2.3-.2.7-.2,1.2Z"/>
    <path d="M96.2,63.8l-3.9-5.1v3.7c0,.3,0,.5,0,.7,0,.2,0,.3.2.4,0,0,.2.1.3.2h0c0,0-1,0-1,0h0c.1-.1.2-.2.2-.3,0-.1,0-.4,0-.7v-3.7c0-.3,0-.6,0-.7,0-.1-.2-.2-.3-.2h0c0-.1.8-.1.8-.1l3.6,4.7v-3.3c0-.3,0-.6,0-.7,0-.2,0-.3-.2-.4,0,0-.2-.1-.3-.2h0c0-.1,1.1-.1,1.1-.1h0c-.1.2-.2.2-.3.4s0,.4,0,.7v4.8h-.1Z"/>
    <path d="M97.4,63.8h0c.1-.1.2-.2.2-.3,0-.1,0-.4,0-.7v-3.7c0-.3,0-.6,0-.7,0-.1-.1-.2-.2-.2h0c0-.1,1.7-.1,1.7-.1.6,0,1,0,1.3.2.3.2.6.3.7.6s.2.5.2.8c0,.6-.2,1-.6,1.3-.4.3-1,.5-1.8.5h-.6v1.2c0,.3,0,.6,0,.7,0,.1.2.2.3.2h0c0,0-1.3,0-1.3,0h0ZM98.4,61.4h.6c.5,0,.9-.1,1.2-.4.3-.3.4-.7.4-1.2s0-.6-.2-.8c-.1-.3-.3-.5-.6-.6-.3-.2-.6-.2-1.1-.2s-.1,0-.2,0h-.2v3.2h0Z"/>
    <path d="M106.2,63.8c-.2,0-.4,0-.5-.2-.1-.1-.2-.3-.3-.5,0-.2-.2-.4-.3-.7-.1-.3-.2-.5-.3-.8,0-.2-.2-.4-.3-.5,0-.1-.2-.2-.4-.3-.2,0-.3-.1-.6-.1h-.5v1.9c0,.3,0,.6,0,.7,0,.1.2.2.3.2h0c0,0-1.3,0-1.3,0h0c.1-.1.2-.2.2-.3,0-.1,0-.4,0-.7v-3.7c0-.3,0-.6,0-.7,0-.1-.1-.2-.2-.2h0c0-.1,1.7-.1,1.7-.1.6,0,1,0,1.3.2.3.1.5.3.7.5.1.2.2.4.2.7,0,.4-.1.7-.4,1-.3.3-.7.5-1.2.5.2,0,.4,0,.6.2.2,0,.3.2.4.3.1.1.2.3.3.5,0,.2.2.4.3.7.1.3.2.6.3.8,0,.2.2.3.2.4,0,0,.2,0,.3,0h0s0,0,0,0h0c0,.1-.1.1-.2.1,0,0-.2,0-.3,0h0ZM103,60.7h.7c.5,0,.8-.1,1.1-.3.2-.2.3-.5.3-.8s0-.5-.2-.7c-.1-.2-.3-.4-.5-.5s-.6-.2-1-.2-.1,0-.2,0h-.2v2.5h0Z"/>
    <path d="M110,63.9c-.3,0-.7,0-1-.2-.3-.1-.7-.3-1-.6s-.5-.6-.7-.9-.2-.8-.2-1.3.1-1.1.4-1.5c.2-.4.6-.8,1-1,.4-.3,1-.4,1.5-.4s.7,0,1,.2c.4.1.7.3,1,.6.3.2.5.5.7.9s.2.8.2,1.3,0,1-.2,1.3c-.2.4-.4.7-.7.9-.3.2-.6.4-1,.5-.3.1-.7.2-1,.2ZM107.7,60.4c0,.4,0,.8.2,1.2.1.4.3.7.6,1.1.2.3.5.5.8.7.3.2.7.3,1,.3s.8,0,1.1-.3c.3-.2.5-.5.7-.8s.2-.7.2-1.1c0-.4,0-.8-.2-1.2-.1-.4-.3-.8-.5-1.1-.2-.3-.5-.6-.8-.8-.3-.2-.7-.3-1-.3s-.8,0-1.1.3c-.3.2-.5.5-.7.8-.2.3-.2.7-.2,1.2Z"/>
    <path d="M113.8,63.8h0c.1-.1.2-.2.2-.3,0-.1,0-.4,0-.7v-3.3c0-.3,0-.6,0-.7,0-.2,0-.3-.2-.4s-.2-.1-.3-.2h0c0-.1,1-.1,1-.1l2.2,3.6,2.1-3.6h.9c-.1.2-.2.2-.3.3,0,0-.1.2-.2.4,0,.2,0,.4,0,.7v3.3c0,.3,0,.6,0,.7,0,.1.2.2.3.2h0c0,0-1.3,0-1.3,0h0c.1-.1.2-.2.2-.3,0-.1,0-.4,0-.7v-4.1l-2.1,3.5h-.2l-2.1-3.5v3.7c0,.3,0,.5,0,.7,0,.2,0,.3.2.4,0,0,.2.1.3.2h0c0,0-1,0-1,0h0Z"/>
    <path d="M120.3,63.7c.2-.2.5-.4.7-.7.3-.3.5-.5.8-.8.2-.3.5-.6.7-.8.2-.3.4-.6.5-.9.1-.3.2-.6.2-.9s0-.6-.3-.8c-.2-.2-.4-.3-.8-.3s-.4,0-.7.2c-.2,0-.4.2-.6.4h0c.2-.4.5-.6.8-.8.3-.2.6-.2,1-.2s.5,0,.7.2c.2,0,.4.2.5.4.1.2.2.4.2.7s0,.6-.2.9c-.1.3-.3.6-.5.9-.2.3-.4.6-.7.8-.3.2-.5.5-.8.7-.2.2-.5.4-.7.6h1.9c.3,0,.5,0,.6,0,.2,0,.3,0,.3-.2s.1-.2.2-.4h0v1.2h-3.8c0-.1,0-.1,0-.1Z"/>
    <path d="M127.2,63.9c-.3,0-.6,0-.9-.2-.3-.1-.6-.3-.8-.5-.2-.2-.4-.6-.6-.9-.2-.4-.2-.8-.2-1.3s0-.9.2-1.2c.1-.4.3-.7.5-.9.2-.3.5-.5.8-.6.3-.1.6-.2,1-.2s.6,0,.9.2c.3.1.6.3.8.6.2.2.4.5.6.9.1.4.2.8.2,1.3s0,.8-.2,1.2-.3.7-.6.9c-.2.2-.5.5-.8.6-.3.1-.6.2-.9.2ZM125.3,60.4c0,.4,0,.8.2,1.2,0,.4.2.7.4,1.1.2.3.4.6.7.8.3.2.6.3.9.3s.6,0,.8-.3c.2-.2.4-.5.5-.8.1-.3.2-.7.2-1.2s0-.8-.1-1.2c-.1-.4-.2-.8-.4-1.1-.2-.3-.4-.6-.7-.8-.3-.2-.6-.3-.9-.3s-.6,0-.8.3c-.2.2-.4.5-.5.8-.1.3-.2.7-.2,1.2h0Z"/>
    <path d="M130.1,63.7c.2-.2.5-.4.7-.7.3-.3.5-.5.8-.8.2-.3.5-.6.7-.8.2-.3.4-.6.5-.9.1-.3.2-.6.2-.9s-.1-.6-.3-.8c-.2-.2-.4-.3-.8-.3s-.4,0-.6.2c-.2,0-.4.2-.6.4h0c.2-.4.5-.6.8-.8.3-.2.6-.2,1-.2s.5,0,.7.2c.2,0,.4.2.5.4.1.2.2.4.2.7s0,.6-.2.9c-.1.3-.3.6-.5.9-.2.3-.4.6-.7.8-.3.2-.5.5-.8.7-.2.2-.5.4-.7.6h1.9c.3,0,.5,0,.6,0,.1,0,.3,0,.3-.2s.1-.2.2-.4h0v1.2h-3.8c0-.1,0-.1,0-.1Z"/>
    <path d="M134.3,64.8c.5-.3.9-.7,1.3-1,.4-.4.7-.7.9-1.1.2-.4.3-.8.3-1.2s-.1-.7-.4-.8c-.2-.2-.6-.3-1-.3-.2,0-.4,0-.5,0-.2,0-.3,0-.4,0h0s.4-2.6.4-2.6h1.3c.4,0,.6,0,.8-.1.2,0,.3-.2.4-.4h.1c0,.2-.2.4-.3.5-.1.2-.2.3-.4.4s-.4.2-.8.2h-1l-.2,1.5c.2,0,.3,0,.5-.1.2,0,.4,0,.6,0,.4,0,.8,0,1,.2.3.2.4.3.6.6.1.2.2.5.2.7,0,.6-.3,1.2-.8,1.8-.6.6-1.3,1.2-2.4,1.8h0q0,0,0,0Z"/>
    <path d="M19.6,29.7v-.4c.4-.1.7-.4.9-.9.1-.5.2-1.2.2-2.1v-10.2c0-1.1,0-1.9-.2-2.5-.1-.6-.3-1.1-.6-1.4-.3-.3-.6-.5-1-.7v-.4h4l6.5,10.9,6.2-10.9h3.8v.4c-.4.2-.7.4-1,.7-.3.3-.5.8-.6,1.4-.1.6-.2,1.4-.2,2.5v10.2c0,1,0,1.7.2,2.1.1.5.4.7.9.9v.4h-4.9v-.4c.4-.1.7-.4.8-.9.1-.5.2-1.2.2-2.1v-12.8l-6.4,11.2h-.6l-6.6-10.9v11c0,1.1,0,1.9.2,2.6.1.6.4,1.1.7,1.4.3.3.7.5,1.1.6v.4h-3.6Z"/>
    <path d="M48.6,30c-.9,0-1.7-.1-2.6-.4-.8-.3-1.6-.7-2.3-1.2-.7-.5-1.2-1.2-1.7-2-.4-.8-.6-1.8-.6-2.9s.2-2.1.6-2.9c.4-.9.9-1.6,1.6-2.2.7-.6,1.4-1.1,2.3-1.5.8-.3,1.7-.5,2.6-.5s1.7.1,2.5.4,1.6.6,2.3,1.2c.7.5,1.3,1.2,1.7,2,.4.8.6,1.8.6,3s-.2,2.1-.7,3c-.4.9-1,1.6-1.7,2.2-.7.6-1.5,1.1-2.3,1.4s-1.6.5-2.4.5ZM44.1,21.4c0,.8.1,1.6.3,2.5.2.9.6,1.8,1,2.6.5.8,1,1.5,1.7,2,.7.5,1.4.8,2.3.8s1.5-.2,2-.7c.5-.4.8-1,1.1-1.7.2-.7.3-1.4.3-2.2s-.1-1.8-.4-2.7c-.3-1-.7-1.9-1.2-2.7-.5-.8-1.1-1.5-1.8-2-.7-.5-1.5-.7-2.3-.6-.8,0-1.4.3-1.8.8-.5.5-.8,1-1,1.7-.2.7-.3,1.4-.3,2.2h0Z"/>
    <path d="M64.6,30c-.9,0-1.7-.1-2.6-.4-.8-.3-1.6-.7-2.3-1.2-.7-.5-1.2-1.2-1.7-2-.4-.8-.6-1.8-.6-2.9s.2-2.1.6-2.9c.4-.9.9-1.6,1.6-2.2.7-.6,1.4-1.1,2.3-1.5.8-.3,1.7-.5,2.6-.5s1.7.1,2.5.4,1.6.6,2.3,1.2c.7.5,1.3,1.2,1.7,2,.4.8.6,1.8.6,3s-.2,2.1-.7,3c-.4.9-1,1.6-1.7,2.2-.7.6-1.5,1.1-2.3,1.4s-1.6.5-2.4.5ZM60.2,21.4c0,.8.1,1.6.3,2.5.2.9.6,1.8,1,2.6.5.8,1,1.5,1.7,2,.7.5,1.4.8,2.3.8s1.5-.2,2-.7c.5-.4.8-1,1.1-1.7.2-.7.3-1.4.3-2.2s-.1-1.8-.4-2.7c-.3-1-.7-1.9-1.2-2.7-.5-.8-1.1-1.5-1.8-2-.7-.5-1.5-.7-2.3-.6-.8,0-1.4.3-1.8.8-.5.5-.8,1-1,1.7-.2.7-.3,1.4-.3,2.2h0Z"/>
    <path d="M73.5,29.7v-.4c.4-.1.7-.4.8-.9.1-.5.2-1.2.2-2.1v-6.1c0-.8,0-1.3-.3-1.5s-.4-.4-.8-.6v-.4l3.5-1.5.2.2v2.2c.7-.6,1.6-1.2,2.5-1.6.9-.5,1.9-.8,3-.8s2.2.3,3,1,1.1,1.8,1.1,3.4v5.7c0,1,0,1.7.2,2.1.1.5.4.7.9.9v.4h-4.8v-.4c.4-.1.7-.4.8-.9.1-.5.2-1.2.2-2.1v-5.2c0-1.2-.2-2.1-.8-2.8-.5-.7-1.2-1-2.2-1s-1.2.2-1.8.5c-.6.3-1.3.7-2,1.3v7.2c0,1,0,1.7.2,2.1.1.5.4.7.9.9v.4h-4.8Z"/>
    <path d="M89.1,29.7v-.4c.4-.1.7-.4.8-.9.1-.5.2-1.2.2-2.1v-14c0-.8,0-1.3-.3-1.5-.2-.2-.4-.4-.8-.6v-.4l3.5-1.5.3.2v17.8c0,1,0,1.7.2,2.1.1.5.4.7.9.9v.4h-4.8Z"/>
    <path d="M95.6,29.7v-.4c.4-.1.7-.4.8-.9.1-.5.2-1.2.2-2.1v-6.1c0-.8,0-1.3-.3-1.5s-.4-.4-.8-.6v-.4l3.5-1.5.2.2v9.9c0,1,0,1.7.2,2.1.1.5.4.7.9.9v.4h-4.8ZM96.1,13.5c0-.5.2-.9.5-1.3.4-.4.8-.5,1.3-.5s1,.2,1.3.5c.3.4.5.8.5,1.3s-.2.9-.5,1.3c-.3.4-.8.5-1.3.5s-.9-.2-1.3-.5c-.3-.4-.5-.8-.5-1.3Z"/>
    <path d="M105.8,37c-.4,0-.8,0-1.3-.2-.5,0-.9-.3-1.3-.5-.4-.2-.8-.6-1.1-1-.3-.4-.4-.9-.4-1.6s.3-1.4.8-2.1c.6-.7,1.4-1.3,2.4-1.9-.6-.2-1-.4-1.3-.7-.3-.3-.5-.8-.5-1.3s.2-.9.5-1.3c.3-.4.9-.8,1.6-1.2-.7-.3-1.3-.8-1.8-1.4-.5-.6-.7-1.4-.7-2.5s.2-1.8.8-2.5c.5-.8,1.2-1.4,2-1.8.8-.5,1.7-.7,2.7-.7s1.3,0,1.9.2c.4-.6.9-1.1,1.4-1.4.4-.3.9-.5,1.3-.7s1-.2,1.5-.2.8,0,1.1.2c.3.1.5.3.5.5s0,.4-.2.6c-.1.2-.3.5-.6.7-.2.2-.5.3-.9.3s-.7,0-1.2-.2c-.4-.1-1-.3-1.8-.6-.2.2-.5.5-.8.9.9.3,1.6.8,2.2,1.4s.9,1.6.9,2.7-.2,1.4-.5,2.1c-.3.6-.8,1.1-1.3,1.6-.5.4-1.1.8-1.8,1-.6.2-1.2.4-1.7.4s-.8,0-1.3-.1c-.4,0-.9-.2-1.3-.4-.2.2-.4.3-.6.5-.1.1-.2.3-.2.6s0,.3.2.5c.1.2.4.3.8.4.4.1,1,.2,1.8.2l3.6.2c1.3,0,2.3.3,3,.6.7.4,1,1,1,1.9s-.3,1.5-.8,2.3c-.5.8-1.2,1.5-2.1,2.2s-1.9,1.2-3,1.7c-1.1.4-2.3.7-3.5.7h0ZM103.8,32.5c0,.7.2,1.3.5,1.7.4.4.8.7,1.4.9.6.2,1.2.3,1.9.3,1.2,0,2.3-.2,3.3-.5.9-.4,1.7-.8,2.2-1.4s.8-1.2.8-1.8-.2-.8-.5-1c-.4-.2-1.1-.4-2.1-.4l-4.3-.2c-.3,0-.6,0-.9,0s-.6,0-.8-.1c-.6.4-1,.8-1.2,1.3-.2.5-.3.9-.3,1.3h0ZM105.2,19.9c0,.6,0,1.1.2,1.8.1.6.3,1.2.7,1.8.3.6.7,1,1.1,1.4.4.4,1,.5,1.6.5s1.1-.1,1.4-.4c.3-.3.6-.7.7-1.1.1-.5.2-1,.2-1.5s0-1.2-.2-1.9c-.2-.7-.4-1.3-.8-1.9-.3-.6-.7-1-1.2-1.4-.5-.3-1-.5-1.6-.4-.8.1-1.3.5-1.7,1.1s-.4,1.3-.4,2.1h0Z"/>
    <path d="M115.9,29.7v-.4c.4-.1.7-.4.8-.9.1-.5.2-1.2.2-2.1v-14c0-.8,0-1.3-.3-1.5-.2-.2-.4-.4-.8-.6v-.4l3.5-1.5.3.2v10.2c.7-.6,1.6-1.2,2.5-1.6.9-.5,1.9-.8,3-.8s2.2.3,3,1c.8.7,1.1,1.8,1.1,3.4v5.7c0,1,0,1.7.2,2.1.1.5.4.7.9.9v.4h-4.8v-.4c.4-.1.7-.4.8-.9.1-.5.2-1.2.2-2.1v-5.2c0-1.2-.3-2.1-.8-2.8-.5-.7-1.2-1-2.2-1s-1.2.2-1.8.5c-.6.3-1.3.7-2,1.3v7.2c0,1,0,1.7.2,2.1.1.5.4.7.9.9v.4h-4.9Z"/>
    <path d="M135.8,30c-.9,0-1.6-.3-2.1-.9-.5-.6-.7-1.6-.7-3.1v-9.1h-1.7v-.4l4-3.5h.4v3.5h4.1v.4h-4.1v9.1c0,.8.1,1.4.4,1.8.3.4.8.6,1.3.6s.6,0,1.1-.2.8-.5,1.3-1.1l.3.2c-.7.8-1.4,1.5-2.1,2-.7.5-1.4.7-2.2.7h0Z"/>
    <path d="M33,47.8v-.4c.4-.1.7-.4.8-.9.1-.5.2-1.2.2-2.1v-10.2c0-1.1,0-1.9-.2-2.5-.1-.6-.3-1.1-.6-1.4-.3-.3-.6-.5-1-.7v-.4h4l6.5,10.9,6.2-10.9h3.8v.4c-.4.2-.7.4-1,.7-.3.3-.5.8-.6,1.4-.1.6-.2,1.5-.2,2.5v10.2c0,1,0,1.7.2,2.1.1.5.4.7.9.9v.4h-4.9v-.4c.4-.1.7-.4.8-.9.1-.5.2-1.2.2-2.1v-12.8l-6.3,11.2h-.6l-6.7-10.9v11c0,1.1,0,1.9.2,2.6.2.6.4,1.1.7,1.4.3.3.7.5,1.2.7v.4h-3.6Z"/>
    <path d="M64.9,47.8c-.7,0-1.1-.3-1.1-1.1v-4.4c-.2,1-.6,2-1.1,2.8-.5.9-1.1,1.6-1.8,2.1-.7.5-1.5.8-2.5.8s-1.8-.3-2.5-.9c-.7-.6-1.1-1.5-1.1-2.6s.3-1.7.8-2.2c.5-.6,1.3-1.1,2.2-1.5.9-.4,1.9-.7,3-1l3-.8c0-1.3-.4-2.2-1-2.8-.6-.5-1.5-.8-2.5-.8s-1.5.2-2.2.5c-.7.3-1.4.9-2.1,1.7l-.3-.2c.8-.9,1.6-1.7,2.6-2.2,1-.5,2.1-.8,3.3-.8s2.8.4,3.6,1.3c.8.8,1.2,2.1,1.2,3.7v5.1c0,1,0,1.7.2,2.1.1.5.4.7.9.9v.4h-2.7ZM57.3,43.7c0,.9.3,1.5.8,1.9.5.4,1.1.6,1.7.6s1.2-.2,1.7-.6c.5-.4.9-.9,1.3-1.5.3-.6.6-1.3.8-2,.2-.7.3-1.3.3-1.9v-.7l-2.8.8c-.3,0-.7.2-1.1.4s-.8.4-1.2.7c-.4.3-.7.6-1,1-.3.4-.4.9-.4,1.4h0Z"/>
    <path d="M74,48c-1,0-1.9-.1-2.7-.3-.8-.2-1.5-.5-2-.9l-.3-3.5h.3c.6,1.2,1.3,2.3,2.2,3.1.9.8,2,1.2,3.2,1.2.8,0,1.5-.2,2-.7.5-.5.7-1,.7-1.6s-.3-1.5-1-1.9c-.6-.4-1.5-.8-2.7-1.2-.9-.3-1.7-.6-2.4-.9-.7-.3-1.2-.7-1.6-1.2-.4-.5-.5-1.1-.5-1.9s.2-1.3.5-1.9.9-1.1,1.7-1.4c.8-.4,1.8-.5,3-.5s1.5,0,2.2.2c.8.1,1.3.3,1.8.5v2.9c.1,0-.2,0-.2,0-.4-.9-1.1-1.7-1.8-2.3-.8-.6-1.7-.9-2.6-.9s-1.5.2-2,.6c-.5.4-.8.9-.8,1.4s.3,1.3,1,1.7c.7.4,1.6.8,2.8,1.2.7.2,1.4.5,2.1.8.7.3,1.2.7,1.7,1.2.5.5.7,1.2.7,2.1s-.2,1.3-.5,2-.8,1.2-1.6,1.7c-.7.4-1.8.7-3,.7h0Z"/>
    <path d="M86.4,48.1c-1.1,0-2.1-.3-2.9-.9-.8-.6-1.5-1.4-2-2.4-.5-1-.7-2-.7-3.1s.3-2.6.9-3.7c.6-1.1,1.4-2,2.5-2.6,1.1-.7,2.4-1,4-1s1.7.2,2.4.5c.7.3,1.3.7,1.8,1.1l1.2-1.4h.2v17c0,1,0,1.7.2,2.1s.4.7.8.9v.3h-4.8v-.3c.4-.2.7-.5.8-.9.1-.5.2-1.2.2-2.1v-6c-.3.4-.7.8-1.2,1.2-.5.4-1,.7-1.6,1-.6.2-1.2.4-1.8.3h0ZM83.4,39.5c0,.6,0,1.3.2,2.2.1.8.4,1.6.7,2.3.3.7.8,1.3,1.4,1.8.6.5,1.4.7,2.3.7s1.2-.1,1.7-.4c.5-.3.9-.7,1.3-1.1v-5.8c0-.7-.2-1.3-.6-2-.3-.7-.8-1.2-1.4-1.7-.6-.4-1.3-.7-2.1-.7s-1.7.2-2.2.7c-.5.5-.9,1.1-1.1,1.8-.2.7-.3,1.4-.3,2.1h0Z"/>
    <path d="M100.7,48.1c-1.4,0-2.4-.4-3-1.3-.6-.8-.9-2.1-.9-3.7v-4.8c0-.8,0-1.3-.3-1.5s-.4-.4-.8-.6v-.4l3.5-1.5.3.2v8.2c0,1.4.2,2.5.5,3.2s1,1.1,2,1.1,1.2-.2,1.8-.5c.6-.3,1.3-.8,2-1.5v-6.7c0-.8,0-1.3-.3-1.5-.2-.2-.4-.4-.8-.6v-.4l3.5-1.5.2.2v9.9c0,1,0,1.7.2,2.1.1.5.4.7.9.9v.4h-2.7c-.7,0-1-.3-1-1.1v-1.2c-.8.7-1.6,1.3-2.5,1.8-.9.5-1.7.7-2.6.7h0Z"/>
    <path d="M117.3,48.1c-.8,0-1.5-.1-2.2-.4-.7-.3-1.4-.7-2-1.2-.6-.5-1.1-1.2-1.5-2s-.6-1.7-.6-2.8.2-2.1.6-3,.9-1.7,1.6-2.3c.7-.6,1.4-1.1,2.2-1.5.8-.3,1.7-.5,2.5-.5s2.2.2,3,.7c.8.5,1.4,1.1,1.8,1.8.4.7.6,1.5.6,2.2h-10c0,.1,0,.3,0,.4v.4c0,1.1.2,2.2.7,3.1.5.9,1.1,1.6,1.9,2.1.8.5,1.8.8,2.9.8s1.9-.2,2.6-.6c.8-.4,1.4-.9,2-1.5l.2.3c-.4.6-.9,1.2-1.5,1.8-.6.6-1.3,1.1-2.1,1.5-.8.4-1.7.6-2.8.6h0ZM113.5,38.8h7.3c-.1-.7-.3-1.4-.7-2-.3-.6-.8-1.1-1.3-1.4-.5-.4-1.1-.5-1.7-.5-.8,0-1.4.2-1.9.5-.5.4-.9.8-1.2,1.5-.3.6-.5,1.2-.6,1.9h0Z"/>
    <path d="M125.1,47.8v-.4c.4-.1.7-.4.8-.9.1-.5.2-1.2.2-2.1v-6.1c0-.8,0-1.3-.3-1.5s-.4-.4-.8-.6v-.4l3.5-1.5.2.2v3.2c.4-1,1.1-1.7,1.9-2.3.5-.4,1-.6,1.5-.8.5-.2,1.1-.2,1.8-.2s.9,0,1.2.2.5.3.5.6,0,.4-.2.7c-.1.3-.3.5-.6.7-.3.2-.6.3-1,.3s-.8,0-1.4-.2c-.5-.1-1.2-.3-2.1-.6-.3.3-.7.7-1,1.2-.4.5-.6,1.2-.6,1.8v5.3c0,1,0,1.7.2,2.1.1.5.4.7.9.9v.4h-4.8Z"/>
    <path d="M147.2,47.8c-.7,0-1.1-.3-1.1-1.1v-4.4c-.2,1-.6,2-1.1,2.8-.5.9-1.1,1.6-1.8,2.1-.7.5-1.5.8-2.5.8s-1.8-.3-2.5-.9c-.7-.6-1.1-1.5-1.1-2.6s.3-1.7.8-2.2c.6-.6,1.3-1.1,2.2-1.5.9-.4,1.9-.7,3-1l3-.8c0-1.3-.4-2.2-1-2.8-.6-.5-1.5-.8-2.5-.8s-1.5.2-2.2.5c-.7.3-1.4.9-2.1,1.7l-.3-.2c.8-.9,1.6-1.7,2.6-2.2,1-.5,2.1-.8,3.3-.8s2.8.4,3.6,1.3c.8.8,1.2,2.1,1.2,3.7v5.1c0,1,0,1.7.2,2.1.1.5.4.7.9.9v.4h-2.7ZM139.6,43.7c0,.9.3,1.5.8,1.9s1.1.6,1.7.6,1.2-.2,1.7-.6c.5-.4.9-.9,1.3-1.5.3-.6.6-1.3.8-2,.2-.7.3-1.3.3-1.9v-.7l-2.8.8c-.3,0-.7.2-1.1.4s-.8.4-1.2.7c-.4.3-.7.6-1,1-.3.4-.4.9-.4,1.4h0Z"/>
    <path d="M156.8,48.1c-1.1,0-2.1-.3-2.9-.9-.9-.6-1.5-1.4-2-2.4-.5-1-.7-2-.7-3.1s.3-2.6.9-3.7c.6-1.1,1.4-2,2.5-2.6,1.1-.7,2.4-1,4-1s1.1,0,1.5.2c.5.1.9.3,1.3.5v-4.7c0-.8,0-1.3-.3-1.5-.2-.2-.4-.4-.8-.6v-.4l3.5-1.5.3.2v17.8c0,1,0,1.7.2,2.1.1.5.4.7.9.9v.4h-2.7c-.7,0-1.1-.3-1.1-1.1v-1.1c-.3.4-.7.8-1.2,1.2s-1,.7-1.5,1c-.6.2-1.2.4-1.9.3h0ZM153.8,39.5c0,.6,0,1.3.2,2.2.1.8.4,1.6.7,2.3.3.7.8,1.3,1.4,1.8.6.5,1.4.7,2.3.7s1.1-.1,1.6-.4c.5-.3.9-.6,1.3-1v-5.8c0-.7-.2-1.3-.5-2-.4-.7-.8-1.2-1.4-1.7-.6-.4-1.3-.7-2-.7s-1.7.2-2.2.7c-.5.5-.9,1.1-1.1,1.8-.2.7-.3,1.4-.3,2.1h0Z"/>
    <path d="M172.8,48.1c-.8,0-1.5-.1-2.2-.4-.7-.3-1.4-.7-2-1.2-.6-.5-1.1-1.2-1.5-2s-.6-1.7-.6-2.8.2-2.1.6-3c.4-.9.9-1.7,1.6-2.3.7-.6,1.4-1.1,2.2-1.5.8-.3,1.7-.5,2.5-.5s2.2.2,3,.7c.8.5,1.4,1.1,1.9,1.8.4.7.6,1.5.6,2.2h-10c0,.1,0,.3,0,.4v.4c0,1.1.2,2.2.7,3.1.5.9,1.1,1.6,1.9,2.1.8.5,1.8.8,2.9.8s1.9-.2,2.6-.6c.8-.4,1.4-.9,2-1.5l.2.3c-.4.6-.9,1.2-1.5,1.8-.6.6-1.3,1.1-2.1,1.5-.8.4-1.7.6-2.8.6h0ZM168.9,38.8h7.4c-.1-.7-.3-1.4-.7-2-.3-.6-.8-1.1-1.3-1.4-.5-.4-1.1-.5-1.7-.5-.8,0-1.4.2-1.9.5-.5.4-.9.8-1.2,1.5-.3.6-.5,1.2-.6,1.9h0Z"/>
  </g>
</svg>